<svg xmlns="http://www.w3.org/2000/svg" viewBox="0 0 1800 1000"><defs><radialGradient id="p" cx="70%" cy="45%" r="40%"><stop stop-color="#66e7ff" stop-opacity=".9"/><stop offset=".45" stop-color="#7d54ff" stop-opacity=".35"/><stop offset="1" stop-color="#050713" stop-opacity="0"/></radialGradient><linearGradient id="s" x1="0" x2="1"><stop stop-color="#ff5f8f"/><stop offset="1" stop-color="#ffd36b"/></linearGradient></defs><rect width="1800" height="1000" fill="#050713"/><path d="M0 760 C360 590 620 670 900 520 C1240 340 1410 460 1800 250 L1800 1000 L0 1000 Z" fill="#111a3d"/><circle cx="1240" cy="420" r="300" fill="url(#p)"/><circle cx="1240" cy="420" r="220" fill="none" stroke="#66e7ff" stroke-width="10" opacity=".65"/><path d="M610 870 C675 580 745 350 895 350 C1040 350 1115 600 1190 870 Z" fill="#151b3e" stroke="#ffd36b" stroke-width="8"/><circle cx="900" cy="265" r="105" fill="#ffd9bd"/><path d="M760 285 C775 115 1020 90 1060 300 C965 225 865 205 760 285 Z" fill="#d7282f"/><path d="M1040 130 L660 800" stroke="url(#s)" stroke-width="24" stroke-linecap="round"/><g opacity=".6" fill="#fff"><circle cx="230" cy="130" r="4"/><circle cx="420" cy="220" r="3"/><circle cx="1510" cy="140" r="5"/><circle cx="1620" cy="540" r="3"/></g></svg>